<svg width="960" height="960" viewBox="0 0 960 960" fill="none" xmlns="http://www.w3.org/2000/svg">
<path d="M519.739 558.993C479.562 518.816 479.562 453.677 519.739 413.5" stroke="black" fill="none" stroke-width="15" stroke-linecap="round"/>
<path d="M553.826 531.284C527.652 505.11 527.652 462.674 553.826 436.5" stroke="black" fill="none" stroke-width="15" stroke-linecap="round"/>
<path d="M701.292 378.482C719.482 376.034 747.858 384.113 773.204 404.227C798.487 424.292 819.587 455.482 823.4 497.263C826.378 529.892 824.722 559.249 812.499 582.379C800.615 604.865 777.775 623.202 734.24 631.884C696.835 639.342 617.142 610.957 606.686 508.601C602.519 467.813 616.338 438.723 635.922 418.063C655.554 397.353 681.281 384.864 701.292 378.482Z" fill="none" stroke="black" stroke-width="20"/>
<path d="M693.33 379.202C821.929 318.415 896.23 326.704 920.807 415.674C953.265 533.175 924.807 570.404 788.207 611.297" fill="none" stroke="black" stroke-width="20"/>
<path d="M711.62 444.12C744.358 444.121 771.634 472.284 771.634 507.959C771.634 543.634 744.358 571.798 711.62 571.798C678.882 571.798 651.605 543.634 651.605 507.959C651.605 472.284 678.882 444.12 711.62 444.12Z" fill="none" stroke="black" stroke-width="16"/>
<path d="M692 298C662 247.5 581.5 183.5 487.5 183.5C356.291 183.5 289 250.5 274.5 265.5" fill="none" stroke="black" stroke-width="20" stroke-linecap="round"/>
<path d="M284 696.5C353.5 749 381.064 780.5 489 780.5C598.595 780.5 651 713.5 683 685" fill="none" stroke="black" stroke-width="20" stroke-linecap="round"/>
<path d="M719.621 474.803C711.048 474.803 696.759 476.46 688.186 485.855C679.109 495.802 680.756 506.854 680.756 516.248" fill="none" stroke="black" stroke-width="15" stroke-linecap="round"/>
<path d="M489.652 601.706C428.844 540.898 428.844 442.308 489.652 381.5" fill="none" stroke="black" stroke-width="15" stroke-linecap="round"/>
<path d="M167.965 342.769C202.686 330.562 225.146 325.019 239.761 325.449C246.757 325.655 251.111 327.225 254.061 329.386C256.996 331.536 259.583 335.035 261.633 341.05C265.968 353.774 266.787 374.101 266.209 404.875C265.645 434.88 263.813 474.036 263.813 521.774C263.813 546.874 265.373 568.273 266.008 585.479C266.659 603.135 266.327 616.246 263.27 626.93C260.377 637.046 254.919 645.358 244.135 653.048C232.963 661.016 215.974 668.374 189.937 675.722L189.71 675.786L189.485 675.861C153.645 687.829 129.06 695.268 111.898 697.174C103.426 698.115 97.7144 697.577 93.7712 696.187C90.1761 694.92 87.5208 692.77 85.3074 689.028C82.9111 684.977 80.9574 678.896 79.6248 669.842C78.3026 660.86 77.6817 649.634 77.5095 635.72C77.1627 607.697 78.6211 570.83 79.198 521.892C79.6516 483.41 79.1528 455.124 79.8337 432.709C80.5144 410.305 82.3767 395.957 86.7292 385.632C90.7753 376.035 97.2861 369.226 109.511 362.865C122.262 356.23 140.477 350.467 167.337 342.967L167.654 342.879L167.965 342.769Z" fill="none" stroke="black" stroke-width="20"/>
<path d="M364.914 374.001C366.486 374.069 367.094 374.493 367.573 375.012C368.299 375.8 369.311 377.544 370.161 381.239C371.893 388.762 372.211 400.744 371.984 418.68C371.761 436.213 371.04 459.014 371.04 486.853C371.04 501.476 371.654 513.912 371.905 523.983C372.161 534.291 372.033 542.04 370.81 548.371C369.636 554.447 367.487 559.008 363.691 563.016C359.746 567.181 353.602 571.195 343.675 575.343L343.456 575.435L343.242 575.541C328.925 582.62 319.898 586.585 313.971 587.559C311.211 588.013 310.129 587.625 309.773 587.439C309.516 587.305 308.742 586.827 307.852 584.598C305.834 579.546 304.906 570.02 304.767 553.327C304.63 536.972 305.205 515.424 305.432 486.913C305.61 464.504 305.415 447.957 305.683 434.879C305.952 421.782 306.689 413.316 308.422 407.23C310.024 401.603 312.451 398.105 316.573 394.929C321.118 391.427 327.792 388.254 338.4 383.869L338.704 383.743L338.997 383.591C345.683 380.11 351.12 377.607 355.558 376.016C360.073 374.397 363.031 373.919 364.914 374.001Z" fill="none" stroke="black" stroke-width="15"/>
<path d="M238.948 322.836C179.507 274.759 163.504 289.366 112.091 303.72C5.21105 333.561 28.0468 347.114 28.0468 499.118C28.0469 658.821 13.758 650.532 84.0587 687.556" fill="none" stroke="black" stroke-width="20"/>
<path d="M272.098 359.861C300.104 351.019 297.301 347.395 311.535 349.361C323.538 351.019 334.969 357.098 363.546 375.334" fill="none" stroke="black" stroke-width="15"/>
<rect width="22.2847" height="63.0469" transform="matrix(0.497369 -0.867539 0.881398 0.472375 29.364 360.792)" fill="black"/>
<rect width="16.7135" height="48.9716" transform="matrix(0.497369 -0.867539 0.881398 0.472375 261.81 569.29)" fill="black"/>
<rect width="16.7135" height="57.0246" transform="matrix(0.497369 -0.867539 0.881398 0.472375 261.81 376.983)" fill="black"/>
<ellipse cx="177.793" cy="611.297" rx="8.57324" ry="8.2891" fill="black"/>
</svg>
