<svg width="960" height="960" viewBox="0 0 960 960" fill="none" xmlns="http://www.w3.org/2000/svg">
<rect x="243" y="120" width="474" height="30" fill="black"/>
<rect x="243" y="150" width="30" height="700" fill="black"/>
<rect x="687" y="150" width="30" height="700" fill="black"/>
<circle cx="620" cy="207" r="13" fill="black"/>
<circle cx="642" cy="515" r="10.5" stroke="black" stroke-width="5"/>
<path d="M629.627 480C631.314 485.223 636.216 489 642 489C649.18 489 655 483.18 655 476C655 468.82 649.18 463 642 463C636.216 463 631.314 466.777 629.627 472" stroke="black" stroke-width="5"/>
<circle cx="620" cy="207" r="30" stroke="black" stroke-width="10"/>
<rect x="576" y="470" width="72" height="5" fill="black"/>
<rect x="576" y="478" width="72" height="5" fill="black"/>
<rect x="576" y="473" width="5" height="6" fill="black"/>
<rect x="643" y="473" width="5" height="6" fill="black"/>
<path d="M311 162C311 170.837 303.837 178 295 178" stroke="black" stroke-width="10"/>
<path d="M335 162C335 184.091 317.091 202 295 202" stroke="black" stroke-width="10"/>
<path d="M360 162C360 197.899 330.899 227 295 227" stroke="black" stroke-width="10"/>
<path d="M385 162C385 211.706 344.706 252 295 252" stroke="black" stroke-width="10"/>
</svg>
