<svg width="960" height="960" viewBox="0 0 960 960" fill="none" xmlns="http://www.w3.org/2000/svg">
<path d="M519.739 496.993C479.562 456.816 479.562 391.677 519.739 351.5" stroke="black" stroke-width="15" stroke-linecap="round" fill="none"/>
<path d="M553.826 469.284C527.652 443.11 527.652 400.674 553.826 374.5" stroke="black" stroke-width="15" stroke-linecap="round" fill="none"/>
<path d="M701.292 316.482C719.482 314.034 747.858 322.113 773.204 342.227C798.487 362.292 819.587 393.482 823.4 435.263C826.378 467.892 824.722 497.249 812.499 520.379C800.615 542.865 777.775 561.202 734.24 569.884C696.835 577.342 617.142 548.957 606.686 446.601C602.519 405.813 616.338 376.723 635.922 356.063C655.554 335.353 681.281 322.864 701.292 316.482Z" stroke="black" stroke-width="20" fill="none"/>
<path d="M693.33 317.202C821.929 256.415 896.23 264.704 920.807 353.674C953.265 471.175 924.807 508.404 788.207 549.297" stroke="black" stroke-width="20" fill="none"/>
<path d="M711.62 382.12C744.358 382.121 771.634 410.284 771.634 445.959C771.634 481.634 744.358 509.798 711.62 509.798C678.882 509.798 651.605 481.634 651.605 445.959C651.605 410.284 678.882 382.12 711.62 382.12Z" stroke="black" stroke-width="16" fill="none"/>
<path d="M692 236C662 185.5 581.5 121.5 487.5 121.5C356.291 121.5 289 188.5 274.5 203.5" stroke="black" stroke-width="20" stroke-linecap="round" fill="none"/>
<path d="M284 634.5C353.5 687 381.064 718.5 489 718.5C598.595 718.5 651 651.5 683 623" stroke="black" stroke-width="20" stroke-linecap="round" fill="none"/>
<path d="M719.621 412.803C711.048 412.803 696.759 414.46 688.186 423.855C679.109 433.802 680.756 444.854 680.756 454.248" stroke="black" stroke-width="15" stroke-linecap="round" fill="none"/>
<path d="M489.652 539.706C428.844 478.898 428.844 380.308 489.652 319.5" stroke="black" stroke-width="15" stroke-linecap="round" fill="none"/>
<path d="M167.965 280.769C202.686 268.562 225.146 263.019 239.761 263.449C246.757 263.655 251.111 265.225 254.061 267.386C256.996 269.536 259.583 273.035 261.633 279.05C265.968 291.774 266.787 312.101 266.209 342.875C265.645 372.88 263.813 412.036 263.813 459.774C263.813 484.874 265.373 506.273 266.008 523.479C266.659 541.135 266.327 554.246 263.27 564.93C260.377 575.046 254.919 583.358 244.135 591.048C232.963 599.016 215.974 606.374 189.937 613.722L189.71 613.786L189.485 613.861C153.645 625.829 129.06 633.268 111.898 635.174C103.426 636.115 97.7144 635.577 93.7712 634.187C90.1761 632.92 87.5208 630.77 85.3074 627.028C82.9111 622.977 80.9574 616.896 79.6248 607.842C78.3026 598.86 77.6817 587.634 77.5095 573.72C77.1627 545.697 78.6211 508.83 79.198 459.892C79.6516 421.41 79.1528 393.124 79.8337 370.709C80.5144 348.305 82.3767 333.957 86.7292 323.632C90.7753 314.035 97.2861 307.226 109.511 300.865C122.262 294.23 140.477 288.467 167.337 280.967L167.654 280.879L167.965 280.769Z" stroke="black" stroke-width="20" fill="none"/>
<path d="M364.914 312.001C366.486 312.069 367.094 312.493 367.573 313.012C368.299 313.8 369.311 315.544 370.161 319.239C371.893 326.762 372.211 338.744 371.984 356.68C371.761 374.213 371.04 397.014 371.04 424.853C371.04 439.476 371.654 451.912 371.905 461.983C372.161 472.291 372.033 480.04 370.81 486.371C369.636 492.447 367.487 497.008 363.691 501.016C359.746 505.181 353.602 509.195 343.675 513.343L343.456 513.435L343.242 513.541C328.925 520.62 319.898 524.585 313.971 525.559C311.211 526.013 310.129 525.625 309.773 525.439C309.516 525.305 308.742 524.827 307.852 522.598C305.834 517.546 304.906 508.02 304.767 491.327C304.63 474.972 305.205 453.424 305.432 424.913C305.61 402.504 305.415 385.957 305.683 372.879C305.952 359.782 306.689 351.316 308.422 345.23C310.024 339.603 312.451 336.105 316.573 332.929C321.118 329.427 327.792 326.254 338.4 321.869L338.704 321.743L338.997 321.591C345.683 318.11 351.12 315.607 355.558 314.016C360.073 312.397 363.031 311.919 364.914 312.001Z" stroke="black" stroke-width="15" fill="none"/>
<path d="M238.948 260.836C179.507 212.759 163.504 227.366 112.091 241.72C5.21105 271.561 28.0468 285.114 28.0468 437.118C28.0469 596.821 13.758 588.532 84.0587 625.556" stroke="black" stroke-width="20" fill="none"/>
<path d="M272.098 297.861C300.104 289.019 297.301 285.395 311.535 287.361C323.538 289.019 334.969 295.098 363.546 313.334" stroke="black" stroke-width="15" fill="none"/>
<rect width="22.2847" height="63.0469" transform="matrix(0.497369 -0.867539 0.881398 0.472375 29.364 298.792)" fill="black"/>
<rect width="16.7135" height="48.9716" transform="matrix(0.497369 -0.867539 0.881398 0.472375 261.81 507.29)" fill="black"/>
<rect width="16.7135" height="57.0246" transform="matrix(0.497369 -0.867539 0.881398 0.472375 261.81 314.983)" fill="black"/>
<ellipse cx="177.793" cy="549.297" rx="8.57324" ry="8.2891" fill="black"/>
</svg>
