<?xml version="1.0" encoding="UTF-8"?>
<svg width="64px" height="64px" viewBox="0 0 64 64" version="1.1" xmlns="http://www.w3.org/2000/svg" xmlns:xlink="http://www.w3.org/1999/xlink">
    <title>alarm_presence</title>
    <g id="alarm_presence" stroke="none" stroke-width="1" fill="none" fill-rule="evenodd">
        <path d="M28.6576708,19 C30.952009,19 32.9519245,20.5614869 33.5083833,22.7873219 L36.940285,36.5149287 C37.2081825,37.5865186 36.5566611,38.6723875 35.4850713,38.940285 C34.4134814,39.2081825 33.3276125,38.5566611 33.059715,37.4850713 L30.9995269,29.245 L30.9995269,49.284 L29.5537007,51.7887505 C28.786631,53.1170081 28.8423807,54.6856627 29.5571102,55.9205194 C29.3808879,55.9724756 29.1936583,56 29,56 C27.8779254,56 26.9513015,55.1234263 26.88906,54.0030793 L26.027735,38.4992302 C26.0121746,38.2191434 25.7805187,38 25.5,38 C25.2194813,38 24.9878254,38.2191434 24.972265,38.4992302 L24.11094,54.0030793 C24.0486985,55.1234263 23.1220746,56 22,56 C20.8954305,56 20,55.1045695 20,54 L19.9995269,29.245 L17.940285,37.4850713 C17.6723875,38.5566611 16.5865186,39.2081825 15.5149287,38.940285 C14.4433389,38.6723875 13.7918175,37.5865186 14.059715,36.5149287 L17.4916167,22.7873219 C18.0480755,20.5614869 20.047991,19 22.3423292,19 L28.6576708,19 Z M46.3069857,33.0352841 L57.7147391,52.7889459 C57.9016999,53.1126873 58,53.4787144 58,53.8511348 C58,55.0379203 57.0229073,56 55.8176024,56 L33.1827753,56 C32.8045434,56 32.4328046,55.9032103 32.1040113,55.7191221 C31.0562517,55.1324914 30.6898538,53.8206068 31.2856386,52.7889459 L42.693392,33.0352841 C42.8783151,32.7150713 43.1475849,32.4499388 43.4727946,32.267857 C44.4706609,31.7091611 45.7395715,32.0527499 46.3069857,33.0352841 Z M44.5011201,50 C43.6720744,50 43,50.6715729 43,51.5 C43,52.3284271 43.6720744,53 44.5011201,53 C45.3301658,53 46.0022402,52.3284271 46.0022402,51.5 C46.0022402,50.6715729 45.3301658,50 44.5011201,50 Z M45.4908345,39 L43.4824171,39.0006547 C43.2016014,39.0144046 42.9859367,39.2373335 43.0007165,39.4985805 L43.4562856,47.5512121 C43.4705188,47.8027975 43.6939427,48 43.9647474,48 L45.0352653,48 C45.30607,48 45.5294939,47.8027975 45.5437271,47.5512121 L46,39.4736842 C46,39.2120756 45.7720388,39 45.4908345,39 Z M25.5,6 C28.5375661,6 31,8.46243388 31,11.5 C31,14.5375661 28.5375661,17 25.5,17 C22.4624339,17 20,14.5375661 20,11.5 C20,8.46243388 22.4624339,6 25.5,6 Z" id="Shape" fill="#000000"></path>
    </g>
</svg>
